<svg class="icon" style="width: 1em; height: 1em;vertical-align: middle;fill: currentColor;overflow: hidden;" viewBox="0 0 1024 1024" version="1.1" xmlns="http://www.w3.org/2000/svg"><path d="M539.792 63.408c-301.28 0-539.808 175.936-539.808 392.96 0 122.896 73.744 232.64 196.384 304.688 27.776 16.32 30.944 138.8-125.296 212.752 0 0 221.2 34.88 361.456-142.432 34.672 4.976 70.544 15.6 107.264 15.6 301.28 0 484.912-173.568 484.912-390.592 0-217.04-183.632-392.976-484.912-392.976zM272.64 560a96 96 0 1 1 0-192 96 96 0 0 1 0 192z m240 0a96 96 0 1 1 0-192 96 96 0 0 1 0 192z m240 0a96 96 0 1 1 0-192 96 96 0 0 1 0 192z" fill="" /></svg>